# xmcd
#
# Track frame offsets: 
#        150
#        18495
#        34805
#        51820
#        70839
#        86884
#        103705
#        120947
#        133619
#        148516
#        165212
#        177070
#        194254
#        211259
#        225551
#        233430
#        245849
#        263401
#        279536
#        290742
#        303986
#        320503
#        333370
#
# Disc length: 4695 seconds
#
# Revision: 2
# Processed by: cddbd v1.5.2PL0 Copyright (c) Steve Scherf et al.
# Submitted via: ExactAudioCopyFreeDBPlugin 1.0
#
DISCID=3f125517
DTITLE=John Denver - All Of My Memories - CD 3
DYEAR=2014
DGENRE=Country
TTITLE0=Farewell Andromeda (Welcome To My Morning)
TTITLE1=Calypso
TTITLE2=Spirit (live)
TTITLE3=Fly Away
TTITLE4=I'm Sorry
TTITLE5=Like A Sad Song
TTITLE6=Come And Let Me Look In Your Eyes
TTITLE7=Baby You Look Good To Me Tonight
TTITLE8=It Makes Me Giggle
TTITLE9=Elis Song
TTITLE10=It Amazes Me
TTITLE11=I Want To Live
TTITLE12=I'n My Heart
TTITLE13=How Can I Leave You Again
TTITLE14=It's A Sin To Tell A Lie
TTITLE15=Druthers
TTITLE16=Bet On The Blues
TTITLE17=Downhill Stuff
TTITLE18=Sweet Melinda
TTITLE19=The Wrangell Mountain Song
TTITLE20=Autograph
TTITLE21=Durango Mountain Caballero
TTITLE22=The Wings That Fly Us Home
EXTD=
EXTT0=
EXTT1=
EXTT2=
EXTT3=
EXTT4=
EXTT5=
EXTT6=
EXTT7=
EXTT8=
EXTT9=
EXTT10=
EXTT11=
EXTT12=
EXTT13=
EXTT14=
EXTT15=
EXTT16=
EXTT17=
EXTT18=
EXTT19=
EXTT20=
EXTT21=
EXTT22=
PLAYORDER=
